# MagicaVoxel @ Ephtracy

# group
o 

# material
mtllib TaskRoomVeryBad.mtl
usemtl palette

# normals
vn -1 0 0
vn 1 0 0
vn 0 0 1
vn 0 0 -1
vn 0 -1 0
vn 0 1 0

# texcoords
vt 0.369141 0.5
vt 0.400391 0.5
vt 0.962891 0.5
vt 0.994141 0.5

# verts
v -0.5 0 2
v -0.5 0 -0.7
v -0.5 0.1 2
v -0.5 0.1 1.9
v -0.5 0.1 -0.6
v -0.5 0.1 -0.7
v -0.5 0.2 2
v -0.5 0.2 1.9
v -0.5 0.2 -0.6
v -0.5 0.2 -0.7
v -0.5 1.3 2
v -0.5 1.3 1.9
v -0.5 1.3 -0.6
v -0.5 1.3 -0.7
v 0.5 0 2.8
v 0.5 0 2
v 0.5 0.6 2.8
v 0.5 0.6 2
v 0.6 0.6 2.7
v 0.6 0.6 2
v 0.6 0.7 2.7
v 0.6 0.7 2
v 0.9 0.1 2.7
v 0.9 0.1 2
v 0.9 0.1 1.9
v 0.9 0.6 2.7
v 0.9 0.6 2
v 0.9 0.6 1.9
v 1.9 0.1 1.8
v 1.9 0.1 1.2
v 1.9 0.1 0.9
v 1.9 0.1 -0.6
v 1.9 0.2 1.8
v 1.9 0.2 1.3
v 1.9 0.2 0.8
v 1.9 0.2 -0.6
v 1.9 0.3 1.9
v 1.9 0.3 1.8
v 1.9 0.6 1.2
v 1.9 0.6 0.9
v 1.9 0.7 1.3
v 1.9 0.7 0.8
v 1.9 1.3 1.9
v 1.9 1.3 -0.6
v 2.6 0 2
v 2.6 0 1.2
v 2.6 0 0.9
v 2.6 0 -0.7
v 2.6 0.1 2
v 2.6 0.1 1.3
v 2.6 0.1 1.2
v 2.6 0.1 0.9
v 2.6 0.1 0.8
v 2.6 0.1 -0.7
v 2.6 0.2 2
v 2.6 0.2 1.3
v 2.6 0.2 0.8
v 2.6 0.2 -0.7
v 2.6 0.7 1.3
v 2.6 0.7 0.8
v 2.6 1.3 2
v 2.6 1.3 -0.7
v 4.3 0.1 1.9
v 4.3 0.1 -0.6
v 4.3 0.2 1.9
v 4.3 0.2 -0.5
v 4.3 0.2 -0.6
v 4.3 1.3 -0.5
v 4.3 1.3 -0.6
v 0.6 0.1 2.7
v 0.6 0.1 2
v 0.6 0.1 1.9
v 0.6 0.6 2.7
v 0.6 0.6 2
v 0.6 0.6 1.9
v 0.9 0 2.8
v 0.9 0 2.7
v 0.9 0.6 2.8
v 0.9 0.6 2.7
v 1 0 2.7
v 1 0 2
v 1 0.7 2.7
v 1 0.7 2
v 2 0 2
v 2 0 1.2
v 2 0 0.9
v 2 0 -0.7
v 2 0.1 2
v 2 0.1 1.9
v 2 0.1 1.8
v 2 0.1 1.3
v 2 0.1 1.2
v 2 0.1 0.9
v 2 0.1 0.8
v 2 0.1 -0.7
v 2 0.2 2
v 2 0.2 1.9
v 2 0.2 1.8
v 2 0.2 1.3
v 2 0.2 0.8
v 2 0.2 -0.7
v 2 0.3 1.9
v 2 0.3 1.8
v 2 0.7 1.3
v 2 0.7 0.8
v 2 1.3 2
v 2 1.3 -0.7
v 2.7 0.1 1.9
v 2.7 0.1 1.2
v 2.7 0.1 0.9
v 2.7 0.1 -0.6
v 2.7 0.2 2
v 2.7 0.2 1.9
v 2.7 0.2 1.3
v 2.7 0.2 0.8
v 2.7 0.2 -0.6
v 2.7 0.6 1.2
v 2.7 0.6 0.9
v 2.7 0.7 1.3
v 2.7 0.7 0.8
v 2.7 1.3 2
v 2.7 1.3 -0.6
v 4.4 0 2
v 4.4 0 -0.7
v 4.4 0.1 2
v 4.4 0.1 -0.7
v 4.4 0.2 2
v 4.4 0.2 -0.5
v 4.4 0.2 -0.7
v 4.4 1.3 -0.5
v 4.4 1.3 -0.7
v 0.5 0 2.8
v 0.5 0.6 2.8
v 0.9 0 2.8
v 0.9 0.6 2.8
v 0.6 0.6 2.7
v 0.6 0.7 2.7
v 0.9 0 2.7
v 0.9 0.6 2.7
v 1 0 2.7
v 1 0.7 2.7
v -0.5 0 2
v -0.5 0.1 2
v -0.5 0.2 2
v -0.5 1.3 2
v -0.4 0.1 2
v -0.4 0.2 2
v 0.5 0 2
v 0.5 0.6 2
v 0.6 0.6 2
v 0.6 0.7 2
v 1 0 2
v 1 0.7 2
v 1.9 0.1 2
v 1.9 0.2 2
v 2 0 2
v 2 0.1 2
v 2 0.2 2
v 2 1.3 2
v 2.6 0 2
v 2.6 0.1 2
v 2.6 0.2 2
v 2.6 1.3 2
v 2.7 0.2 2
v 2.7 1.3 2
v 4.4 0 2
v 4.4 0.1 2
v 4.4 0.2 2
v 1.9 0.1 1.8
v 1.9 0.2 1.8
v 1.9 0.3 1.8
v 2 0.1 1.8
v 2 0.2 1.8
v 2 0.3 1.8
v 2 0.1 1.3
v 2 0.2 1.3
v 2 0.7 1.3
v 2.6 0.1 1.3
v 2.6 0.2 1.3
v 2.6 0.7 1.3
v 2 0 1.2
v 2 0.1 1.2
v 2.6 0 1.2
v 2.6 0.1 1.2
v 1.9 0.1 0.9
v 1.9 0.6 0.9
v 2 0.2 0.9
v 2 0.6 0.9
v 2.6 0.2 0.9
v 2.6 0.6 0.9
v 2.7 0.1 0.9
v 2.7 0.6 0.9
v 4.3 0.2 -0.5
v 4.3 1.3 -0.5
v 4.4 0.2 -0.5
v 4.4 1.3 -0.5
v -0.5 0.1 -0.6
v -0.5 0.2 -0.6
v -0.5 1.3 -0.6
v -0.4 0.1 -0.6
v -0.4 0.2 -0.6
v -0.3 0.2 -0.6
v -0.3 1.1 -0.6
v 0.1 0.2 -0.6
v 0.1 1.1 -0.6
v 0.2 0.2 -0.6
v 0.2 1.1 -0.6
v 1.8 0.2 -0.6
v 1.8 1.1 -0.6
v 1.9 0.1 -0.6
v 1.9 0.2 -0.6
v 1.9 1.3 -0.6
v 2.7 0.1 -0.6
v 2.7 0.2 -0.6
v 2.7 1.3 -0.6
v 3 0.2 -0.6
v 3 1.1 -0.6
v 4.2 0.2 -0.6
v 4.2 1.1 -0.6
v 4.3 0.1 -0.6
v 4.3 0.2 -0.6
v 4.3 1.3 -0.6
v 0.6 0.1 2.7
v 0.6 0.6 2.7
v 0.9 0.1 2.7
v 0.9 0.6 2.7
v -0.5 0.1 1.9
v -0.5 0.2 1.9
v -0.5 1.3 1.9
v -0.4 0.1 1.9
v -0.4 0.2 1.9
v 0.6 0.1 1.9
v 0.6 0.6 1.9
v 0.9 0.1 1.9
v 0.9 0.6 1.9
v 1.9 0.1 1.9
v 1.9 0.2 1.9
v 1.9 0.3 1.9
v 1.9 1.3 1.9
v 2 0.1 1.9
v 2 0.2 1.9
v 2 0.3 1.9
v 2.7 0.1 1.9
v 2.7 0.2 1.9
v 4.3 0.1 1.9
v 4.3 0.2 1.9
v 1.9 0.1 1.2
v 1.9 0.6 1.2
v 2 0.2 1.2
v 2 0.6 1.2
v 2.6 0.2 1.2
v 2.6 0.6 1.2
v 2.7 0.1 1.2
v 2.7 0.6 1.2
v 2 0 0.9
v 2 0.1 0.9
v 2.6 0 0.9
v 2.6 0.1 0.9
v 2 0.1 0.8
v 2 0.2 0.8
v 2 0.7 0.8
v 2.6 0.1 0.8
v 2.6 0.2 0.8
v 2.6 0.7 0.8
v -0.5 0 -0.7
v -0.5 0.1 -0.7
v -0.5 0.2 -0.7
v -0.5 1.3 -0.7
v -0.4 0.1 -0.7
v -0.4 0.2 -0.7
v -0.3 0.2 -0.7
v -0.3 1.1 -0.7
v 0.1 0.2 -0.7
v 0.1 1.1 -0.7
v 0.2 0.2 -0.7
v 0.2 1.1 -0.7
v 1.8 0.2 -0.7
v 1.8 1.1 -0.7
v 1.9 0.1 -0.7
v 1.9 0.2 -0.7
v 2 0 -0.7
v 2 0.1 -0.7
v 2 0.2 -0.7
v 2 1.3 -0.7
v 2.6 0 -0.7
v 2.6 0.1 -0.7
v 2.6 0.2 -0.7
v 2.6 1.3 -0.7
v 2.7 0.1 -0.7
v 2.7 0.2 -0.7
v 3 0.2 -0.7
v 3 1.1 -0.7
v 4.2 0.2 -0.7
v 4.2 1.1 -0.7
v 4.3 0.1 -0.7
v 4.3 0.2 -0.7
v 4.4 0 -0.7
v 4.4 0.1 -0.7
v 4.4 0.2 -0.7
v 4.4 1.3 -0.7
v 0.5 0 2.8
v 0.9 0 2.8
v 0.9 0 2.7
v 1 0 2.7
v -0.5 0 2
v 0.5 0 2
v 1 0 2
v 2 0 2
v 2.6 0 2
v 4.4 0 2
v 2 0 1.2
v 2.6 0 1.2
v 2 0 0.9
v 2.6 0 0.9
v -0.5 0 -0.7
v 2 0 -0.7
v 2.6 0 -0.7
v 4.4 0 -0.7
v 2 0.1 1.3
v 2.6 0.1 1.3
v 2 0.1 1.2
v 2.6 0.1 1.2
v 2 0.1 0.9
v 2.6 0.1 0.9
v 2 0.1 0.8
v 2.6 0.1 0.8
v 1.9 0.3 1.9
v 2 0.3 1.9
v 1.9 0.3 1.8
v 2 0.3 1.8
v 0.6 0.6 2.7
v 0.9 0.6 2.7
v 0.6 0.6 2
v 0.9 0.6 2
v 0.6 0.6 1.9
v 0.9 0.6 1.9
v 1.9 0.6 1.2
v 2 0.6 1.2
v 2.6 0.6 1.2
v 2.7 0.6 1.2
v 1.9 0.6 0.9
v 2 0.6 0.9
v 2.6 0.6 0.9
v 2.7 0.6 0.9
v 0.6 0.1 2.7
v 0.9 0.1 2.7
v 0.6 0.1 2
v 0.9 0.1 2
v -0.5 0.1 1.9
v -0.4 0.1 1.9
v 0.6 0.1 1.9
v 0.9 0.1 1.9
v 1.9 0.1 1.9
v 2 0.1 1.9
v 2.7 0.1 1.9
v 4.3 0.1 1.9
v 1.9 0.1 1.8
v 2 0.1 1.8
v 1.9 0.1 1.2
v 2.7 0.1 1.2
v 1.9 0.1 0.9
v 2.7 0.1 0.9
v -0.5 0.1 -0.6
v -0.4 0.1 -0.6
v 1.9 0.1 -0.6
v 2.7 0.1 -0.6
v 4.3 0.1 -0.6
v 2.7 0.2 2
v 4.4 0.2 2
v 2.7 0.2 1.9
v 4.3 0.2 1.9
v 4.3 0.2 -0.5
v 4.4 0.2 -0.5
v 0.5 0.6 2.8
v 0.9 0.6 2.8
v 0.6 0.6 2.7
v 0.9 0.6 2.7
v 0.5 0.6 2
v 0.6 0.6 2
v 0.6 0.7 2.7
v 1 0.7 2.7
v 0.6 0.7 2
v 1 0.7 2
v 2 0.7 1.3
v 2.6 0.7 1.3
v 2 0.7 0.8
v 2.6 0.7 0.8
v -0.5 1.3 2
v 2 1.3 2
v 2.6 1.3 2
v 2.7 1.3 2
v -0.5 1.3 1.9
v 1.9 1.3 1.9
v 4.3 1.3 -0.5
v 4.4 1.3 -0.5
v -0.5 1.3 -0.6
v 1.9 1.3 -0.6
v 2.7 1.3 -0.6
v 4.3 1.3 -0.6
v -0.5 1.3 -0.7
v 2 1.3 -0.7
v 2.6 1.3 -0.7
v 4.4 1.3 -0.7

# faces
f 3/1/1 2/1/1 1/1/1
f 4/1/1 2/1/1 3/1/1
f 5/1/1 2/1/1 4/1/1
f 6/1/1 2/1/1 5/1/1
f 7/2/1 4/2/1 3/2/1
f 8/2/1 4/2/1 7/2/1
f 9/2/1 6/2/1 5/2/1
f 10/2/1 6/2/1 9/2/1
f 11/1/1 8/1/1 7/1/1
f 12/1/1 8/1/1 11/1/1
f 13/1/1 10/1/1 9/1/1
f 14/1/1 10/1/1 13/1/1
f 17/4/1 16/4/1 15/4/1
f 18/4/1 16/4/1 17/4/1
f 21/4/1 20/4/1 19/4/1
f 22/4/1 20/4/1 21/4/1
f 26/4/1 24/4/1 23/4/1
f 27/1/1 25/1/1 24/1/1
f 27/4/1 24/4/1 26/4/1
f 28/1/1 25/1/1 27/1/1
f 33/2/1 30/2/1 29/2/1
f 34/2/1 30/2/1 33/2/1
f 35/2/1 32/2/1 31/2/1
f 36/2/1 32/2/1 35/2/1
f 38/1/1 34/1/1 33/1/1
f 39/2/1 30/2/1 34/2/1
f 40/2/1 35/2/1 31/2/1
f 41/1/1 38/1/1 37/1/1
f 41/2/1 40/2/1 39/2/1
f 41/2/1 39/2/1 34/2/1
f 41/1/1 34/1/1 38/1/1
f 42/2/1 35/2/1 40/2/1
f 42/2/1 40/2/1 41/2/1
f 42/1/1 36/1/1 35/1/1
f 43/1/1 41/1/1 37/1/1
f 43/1/1 42/1/1 41/1/1
f 44/1/1 36/1/1 42/1/1
f 44/1/1 42/1/1 43/1/1
f 49/1/1 46/1/1 45/1/1
f 50/1/1 46/1/1 49/1/1
f 51/1/1 46/1/1 50/1/1
f 52/1/1 48/1/1 47/1/1
f 53/1/1 48/1/1 52/1/1
f 54/1/1 48/1/1 53/1/1
f 55/2/1 50/2/1 49/2/1
f 56/2/1 50/2/1 55/2/1
f 57/2/1 54/2/1 53/2/1
f 58/2/1 54/2/1 57/2/1
f 59/1/1 56/1/1 55/1/1
f 60/1/1 58/1/1 57/1/1
f 61/1/1 59/1/1 55/1/1
f 61/1/1 60/1/1 59/1/1
f 62/1/1 58/1/1 60/1/1
f 62/1/1 60/1/1 61/1/1
f 65/2/1 64/2/1 63/2/1
f 66/2/1 64/2/1 65/2/1
f 67/2/1 64/2/1 66/2/1
f 68/1/1 67/1/1 66/1/1
f 69/1/1 67/1/1 68/1/1
f 70/4/2 71/4/2 73/4/2
f 71/1/2 72/1/2 74/1/2
f 73/4/2 71/4/2 74/4/2
f 74/1/2 72/1/2 75/1/2
f 76/4/2 77/4/2 78/4/2
f 78/4/2 77/4/2 79/4/2
f 80/4/2 81/4/2 82/4/2
f 82/4/2 81/4/2 83/4/2
f 84/1/2 85/1/2 88/1/2
f 88/1/2 85/1/2 89/1/2
f 89/1/2 85/1/2 90/1/2
f 90/1/2 85/1/2 91/1/2
f 91/1/2 85/1/2 92/1/2
f 86/1/2 87/1/2 93/1/2
f 93/1/2 87/1/2 94/1/2
f 94/1/2 87/1/2 95/1/2
f 88/2/2 89/2/2 96/2/2
f 96/2/2 89/2/2 97/2/2
f 90/2/2 91/2/2 98/2/2
f 98/2/2 91/2/2 99/2/2
f 94/2/2 95/2/2 100/2/2
f 100/2/2 95/2/2 101/2/2
f 96/1/2 97/1/2 102/1/2
f 98/1/2 99/1/2 103/1/2
f 103/1/2 99/1/2 104/1/2
f 102/1/2 103/1/2 104/1/2
f 100/1/2 101/1/2 105/1/2
f 96/1/2 102/1/2 106/1/2
f 104/1/2 105/1/2 106/1/2
f 102/1/2 104/1/2 106/1/2
f 105/1/2 101/1/2 107/1/2
f 106/1/2 105/1/2 107/1/2
f 108/2/2 109/2/2 113/2/2
f 113/2/2 109/2/2 114/2/2
f 110/2/2 111/2/2 115/2/2
f 115/2/2 111/2/2 116/2/2
f 114/2/2 109/2/2 117/2/2
f 110/2/2 115/2/2 118/2/2
f 112/1/2 113/1/2 119/1/2
f 117/2/2 118/2/2 119/2/2
f 113/1/2 114/1/2 119/1/2
f 114/2/2 117/2/2 119/2/2
f 118/2/2 115/2/2 120/2/2
f 119/2/2 118/2/2 120/2/2
f 115/1/2 116/1/2 120/1/2
f 112/1/2 119/1/2 121/1/2
f 119/1/2 120/1/2 121/1/2
f 120/1/2 116/1/2 122/1/2
f 121/1/2 120/1/2 122/1/2
f 123/1/2 124/1/2 125/1/2
f 125/1/2 124/1/2 126/1/2
f 125/2/2 126/2/2 127/2/2
f 127/2/2 126/2/2 128/2/2
f 128/2/2 126/2/2 129/2/2
f 128/1/2 129/1/2 130/1/2
f 130/1/2 129/1/2 131/1/2
f 134/4/3 133/4/3 132/4/3
f 135/4/3 133/4/3 134/4/3
f 139/4/3 137/4/3 136/4/3
f 140/4/3 139/4/3 138/4/3
f 141/4/3 137/4/3 139/4/3
f 141/4/3 139/4/3 140/4/3
f 146/1/3 143/1/3 142/1/3
f 146/2/3 144/2/3 143/2/3
f 147/1/3 145/1/3 144/1/3
f 147/2/3 144/2/3 146/2/3
f 148/1/3 146/1/3 142/1/3
f 148/1/3 147/1/3 146/1/3
f 149/1/3 145/1/3 147/1/3
f 149/1/3 147/1/3 148/1/3
f 150/1/3 145/1/3 149/1/3
f 151/1/3 145/1/3 150/1/3
f 153/1/3 145/1/3 151/1/3
f 154/1/3 153/1/3 152/1/3
f 155/1/3 153/1/3 154/1/3
f 156/1/3 154/1/3 152/1/3
f 157/2/3 155/2/3 154/2/3
f 157/1/3 154/1/3 156/1/3
f 158/1/3 153/1/3 155/1/3
f 158/2/3 155/2/3 157/2/3
f 159/1/3 145/1/3 153/1/3
f 159/1/3 153/1/3 158/1/3
f 164/2/3 162/2/3 161/2/3
f 164/1/3 163/1/3 162/1/3
f 165/1/3 163/1/3 164/1/3
f 166/1/3 161/1/3 160/1/3
f 167/2/3 164/2/3 161/2/3
f 167/1/3 161/1/3 166/1/3
f 168/2/3 164/2/3 167/2/3
f 172/2/3 170/2/3 169/2/3
f 173/1/3 171/1/3 170/1/3
f 173/2/3 170/2/3 172/2/3
f 174/1/3 171/1/3 173/1/3
f 178/2/3 176/2/3 175/2/3
f 179/1/3 177/1/3 176/1/3
f 179/2/3 176/2/3 178/2/3
f 180/1/3 177/1/3 179/1/3
f 183/1/3 182/1/3 181/1/3
f 184/1/3 182/1/3 183/1/3
f 187/2/3 186/2/3 185/2/3
f 188/2/3 186/2/3 187/2/3
f 189/2/3 187/2/3 185/2/3
f 189/1/3 188/1/3 187/1/3
f 190/1/3 188/1/3 189/1/3
f 191/2/3 189/2/3 185/2/3
f 191/2/3 190/2/3 189/2/3
f 192/2/3 190/2/3 191/2/3
f 195/1/3 194/1/3 193/1/3
f 196/1/3 194/1/3 195/1/3
f 200/2/3 198/2/3 197/2/3
f 201/1/3 199/1/3 198/1/3
f 201/2/3 198/2/3 200/2/3
f 202/1/3 201/1/3 200/1/3
f 202/1/3 199/1/3 201/1/3
f 203/1/3 199/1/3 202/1/3
f 204/1/3 202/1/3 200/1/3
f 204/3/3 203/3/3 202/3/3
f 205/1/3 199/1/3 203/1/3
f 205/3/3 203/3/3 204/3/3
f 206/1/3 204/1/3 200/1/3
f 206/1/3 205/1/3 204/1/3
f 207/1/3 199/1/3 205/1/3
f 207/1/3 205/1/3 206/1/3
f 208/1/3 206/1/3 200/1/3
f 208/4/3 207/4/3 206/4/3
f 209/1/3 199/1/3 207/1/3
f 209/4/3 207/4/3 208/4/3
f 210/1/3 208/1/3 200/1/3
f 210/1/3 209/1/3 208/1/3
f 211/1/3 209/1/3 210/1/3
f 212/1/3 199/1/3 209/1/3
f 212/1/3 209/1/3 211/1/3
f 216/1/3 214/1/3 213/1/3
f 216/1/3 215/1/3 214/1/3
f 217/1/3 215/1/3 216/1/3
f 218/1/3 216/1/3 213/1/3
f 218/4/3 217/4/3 216/4/3
f 219/1/3 215/1/3 217/1/3
f 219/4/3 217/4/3 218/4/3
f 220/1/3 218/1/3 213/1/3
f 220/1/3 219/1/3 218/1/3
f 221/1/3 219/1/3 220/1/3
f 222/1/3 215/1/3 219/1/3
f 222/1/3 219/1/3 221/1/3
f 223/4/4 224/4/4 225/4/4
f 225/4/4 224/4/4 226/4/4
f 227/2/4 228/2/4 230/2/4
f 228/1/4 229/1/4 231/1/4
f 230/2/4 228/2/4 231/2/4
f 230/1/4 231/1/4 232/1/4
f 231/1/4 229/1/4 233/1/4
f 232/1/4 231/1/4 233/1/4
f 233/1/4 229/1/4 235/1/4
f 234/1/4 235/1/4 236/1/4
f 236/1/4 235/1/4 237/1/4
f 237/1/4 235/1/4 238/1/4
f 235/1/4 229/1/4 239/1/4
f 238/1/4 235/1/4 239/1/4
f 236/2/4 237/2/4 240/2/4
f 237/1/4 238/1/4 241/1/4
f 240/2/4 237/2/4 241/2/4
f 241/1/4 238/1/4 242/1/4
f 243/2/4 244/2/4 245/2/4
f 245/2/4 244/2/4 246/2/4
f 247/2/4 248/2/4 249/2/4
f 249/2/4 248/2/4 250/2/4
f 247/2/4 249/2/4 251/2/4
f 249/1/4 250/1/4 251/1/4
f 251/1/4 250/1/4 252/1/4
f 247/2/4 251/2/4 253/2/4
f 251/2/4 252/2/4 253/2/4
f 253/2/4 252/2/4 254/2/4
f 255/1/4 256/1/4 257/1/4
f 257/1/4 256/1/4 258/1/4
f 259/2/4 260/2/4 262/2/4
f 260/1/4 261/1/4 263/1/4
f 262/2/4 260/2/4 263/2/4
f 263/1/4 261/1/4 264/1/4
f 265/1/4 266/1/4 269/1/4
f 266/2/4 267/2/4 269/2/4
f 267/1/4 268/1/4 270/1/4
f 269/2/4 267/2/4 270/2/4
f 269/1/4 270/1/4 271/1/4
f 270/1/4 268/1/4 271/1/4
f 271/1/4 268/1/4 272/1/4
f 269/1/4 271/1/4 273/1/4
f 271/3/4 272/3/4 273/3/4
f 272/1/4 268/1/4 274/1/4
f 273/3/4 272/3/4 274/3/4
f 269/1/4 273/1/4 275/1/4
f 273/1/4 274/1/4 275/1/4
f 274/1/4 268/1/4 276/1/4
f 275/1/4 274/1/4 276/1/4
f 269/1/4 275/1/4 277/1/4
f 275/4/4 276/4/4 277/4/4
f 276/1/4 268/1/4 278/1/4
f 277/4/4 276/4/4 278/4/4
f 265/1/4 269/1/4 279/1/4
f 269/1/4 277/1/4 279/1/4
f 277/1/4 278/1/4 279/1/4
f 279/1/4 278/1/4 280/1/4
f 265/1/4 279/1/4 281/1/4
f 279/2/4 280/2/4 282/2/4
f 281/1/4 279/1/4 282/1/4
f 280/1/4 278/1/4 283/1/4
f 282/2/4 280/2/4 283/2/4
f 278/1/4 268/1/4 284/1/4
f 283/1/4 278/1/4 284/1/4
f 285/1/4 286/1/4 289/1/4
f 286/2/4 287/2/4 289/2/4
f 287/1/4 288/1/4 290/1/4
f 289/2/4 287/2/4 290/2/4
f 289/1/4 290/1/4 291/1/4
f 290/1/4 288/1/4 291/1/4
f 291/1/4 288/1/4 292/1/4
f 289/1/4 291/1/4 293/1/4
f 291/4/4 292/4/4 293/4/4
f 292/1/4 288/1/4 294/1/4
f 293/4/4 292/4/4 294/4/4
f 285/1/4 289/1/4 295/1/4
f 289/1/4 293/1/4 295/1/4
f 293/1/4 294/1/4 295/1/4
f 295/1/4 294/1/4 296/1/4
f 285/1/4 295/1/4 297/1/4
f 295/2/4 296/2/4 298/2/4
f 297/1/4 295/1/4 298/1/4
f 296/1/4 294/1/4 299/1/4
f 298/2/4 296/2/4 299/2/4
f 294/1/4 288/1/4 300/1/4
f 299/1/4 294/1/4 300/1/4
f 303/4/5 302/4/5 301/4/5
f 306/4/5 303/4/5 301/4/5
f 306/4/5 304/4/5 303/4/5
f 307/4/5 304/4/5 306/4/5
f 311/1/5 306/1/5 305/1/5
f 311/1/5 307/1/5 306/1/5
f 311/1/5 308/1/5 307/1/5
f 312/1/5 310/1/5 309/1/5
f 313/1/5 311/1/5 305/1/5
f 313/1/5 312/1/5 311/1/5
f 314/1/5 310/1/5 312/1/5
f 314/1/5 312/1/5 313/1/5
f 315/1/5 313/1/5 305/1/5
f 316/1/5 313/1/5 315/1/5
f 317/1/5 310/1/5 314/1/5
f 318/1/5 310/1/5 317/1/5
f 321/2/5 320/2/5 319/2/5
f 322/2/5 320/2/5 321/2/5
f 325/2/5 324/2/5 323/2/5
f 326/2/5 324/2/5 325/2/5
f 329/1/5 328/1/5 327/1/5
f 330/1/5 328/1/5 329/1/5
f 333/4/5 332/4/5 331/4/5
f 334/4/5 332/4/5 333/4/5
f 335/1/5 334/1/5 333/1/5
f 336/1/5 334/1/5 335/1/5
f 341/2/5 338/2/5 337/2/5
f 342/1/5 339/1/5 338/1/5
f 342/2/5 338/2/5 341/2/5
f 343/2/5 340/2/5 339/2/5
f 343/1/5 339/1/5 342/1/5
f 344/2/5 340/2/5 343/2/5
f 345/4/6 346/4/6 347/4/6
f 347/4/6 346/4/6 348/4/6
f 347/1/6 348/1/6 351/1/6
f 351/1/6 348/1/6 352/1/6
f 349/1/6 350/1/6 357/1/6
f 351/1/6 352/1/6 357/1/6
f 353/1/6 354/1/6 357/1/6
f 352/1/6 353/1/6 357/1/6
f 350/1/6 351/1/6 357/1/6
f 357/1/6 354/1/6 358/1/6
f 349/1/6 357/1/6 359/1/6
f 355/1/6 356/1/6 360/1/6
f 349/1/6 359/1/6 361/1/6
f 359/1/6 360/1/6 361/1/6
f 360/1/6 356/1/6 362/1/6
f 361/1/6 360/1/6 362/1/6
f 349/1/6 361/1/6 363/1/6
f 363/1/6 361/1/6 364/1/6
f 364/1/6 361/1/6 365/1/6
f 362/1/6 356/1/6 366/1/6
f 366/1/6 356/1/6 367/1/6
f 368/2/6 369/2/6 370/2/6
f 370/2/6 369/2/6 371/2/6
f 371/2/6 369/2/6 372/2/6
f 372/2/6 369/2/6 373/2/6
f 374/4/6 375/4/6 376/4/6
f 376/4/6 375/4/6 377/4/6
f 374/4/6 376/4/6 378/4/6
f 378/4/6 376/4/6 379/4/6
f 380/4/6 381/4/6 382/4/6
f 382/4/6 381/4/6 383/4/6
f 384/1/6 385/1/6 386/1/6
f 386/1/6 385/1/6 387/1/6
f 388/1/6 389/1/6 392/1/6
f 392/1/6 389/1/6 393/1/6
f 393/1/6 389/1/6 397/1/6
f 390/1/6 391/1/6 398/1/6
f 394/1/6 395/1/6 399/1/6
f 396/1/6 397/1/6 400/1/6
f 397/1/6 389/1/6 401/1/6
f 400/1/6 397/1/6 401/1/6
f 398/1/6 399/1/6 402/1/6
f 390/1/6 398/1/6 402/1/6
f 399/1/6 395/1/6 403/1/6
f 402/1/6 399/1/6 403/1/6
