# MagicaVoxel @ Ephtracy

# group
o 

# material
mtllib TheoryRoom.mtl
usemtl palette

# normals
vn -1 0 0
vn 1 0 0
vn 0 0 1
vn 0 0 -1
vn 0 -1 0
vn 0 1 0

# texcoords
vt 0.0214844 0.5
vt 0.369141 0.5
vt 0.400391 0.5
vt 0.537109 0.5
vt 0.958984 0.5
vt 0.994141 0.5

# verts
v -0.5 0 2
v -0.5 0 -0.7
v -0.5 0.1 2
v -0.5 0.1 -0.7
v -0.5 0.2 2
v -0.5 0.2 -0.7
v -0.5 0.3 1.4
v -0.5 0.3 -0.4
v -0.5 1.1 1.4
v -0.5 1.1 -0.4
v -0.5 1.4 2
v -0.5 1.4 -0.7
v 0 1.2 1.5
v 0 1.2 1.4
v 0 1.2 -0.1
v 0 1.2 -0.2
v 0 1.3 1.5
v 0 1.3 1.4
v 0 1.3 -0.1
v 0 1.3 -0.2
v 0.5 0 2.8
v 0.5 0 2
v 0.5 0.6 2.8
v 0.5 0.6 2
v 0.6 0.6 2.7
v 0.6 0.6 2
v 0.6 0.7 2.7
v 0.6 0.7 2
v 0.9 0.1 2.7
v 0.9 0.1 2
v 0.9 0.1 1.9
v 0.9 0.6 2.7
v 0.9 0.6 2
v 0.9 0.6 1.9
v 1.4 1.2 1.5
v 1.4 1.2 1.4
v 1.4 1.2 -0.1
v 1.4 1.2 -0.2
v 1.4 1.3 1.5
v 1.4 1.3 1.4
v 1.4 1.3 -0.1
v 1.4 1.3 -0.2
v 1.9 0.1 1.9
v 1.9 0.1 -0.6
v 1.9 0.2 1.9
v 1.9 0.2 -0.6
v 1.9 1.3 1.9
v 1.9 1.3 -0.6
v -0.4 0.1 1.9
v -0.4 0.1 -0.6
v -0.4 0.2 1.9
v -0.4 0.2 -0.6
v -0.4 0.3 1.4
v -0.4 0.3 -0.4
v -0.4 1.1 1.4
v -0.4 1.1 -0.4
v -0.4 1.3 1.9
v -0.4 1.3 -0.6
v 0.1 1.2 1.5
v 0.1 1.2 1.4
v 0.1 1.2 -0.1
v 0.1 1.2 -0.2
v 0.1 1.3 1.5
v 0.1 1.3 1.4
v 0.1 1.3 -0.1
v 0.1 1.3 -0.2
v 0.6 0.1 2.7
v 0.6 0.1 2
v 0.6 0.1 1.9
v 0.6 0.6 2.7
v 0.6 0.6 2
v 0.6 0.6 1.9
v 0.9 0 2.8
v 0.9 0 2.7
v 0.9 0.6 2.8
v 0.9 0.6 2.7
v 1 0 2.7
v 1 0 2
v 1 0.7 2.7
v 1 0.7 2
v 1.5 1.2 1.5
v 1.5 1.2 1.4
v 1.5 1.2 -0.1
v 1.5 1.2 -0.2
v 1.5 1.3 1.5
v 1.5 1.3 1.4
v 1.5 1.3 -0.1
v 1.5 1.3 -0.2
v 2 0 2
v 2 0 -0.7
v 2 0.1 2
v 2 0.1 -0.7
v 2 0.2 2
v 2 0.2 -0.7
v 2 1.4 2
v 2 1.4 -0.7
v 0.5 0 2.8
v 0.5 0.6 2.8
v 0.9 0 2.8
v 0.9 0.6 2.8
v 0.6 0.6 2.7
v 0.6 0.7 2.7
v 0.9 0 2.7
v 0.9 0.6 2.7
v 1 0 2.7
v 1 0.7 2.7
v -0.5 0 2
v -0.5 0.1 2
v -0.5 0.2 2
v -0.5 1.4 2
v -0.4 0.1 2
v -0.4 0.2 2
v 0.5 0 2
v 0.5 0.6 2
v 0.6 0.6 2
v 0.6 0.7 2
v 1 0 2
v 1 0.7 2
v 1.9 0.1 2
v 1.9 0.2 2
v 2 0 2
v 2 0.1 2
v 2 0.2 2
v 2 1.4 2
v 0 1.2 1.5
v 0 1.3 1.5
v 0.1 1.2 1.5
v 0.1 1.3 1.5
v 1.4 1.2 1.5
v 1.4 1.3 1.5
v 1.5 1.2 1.5
v 1.5 1.3 1.5
v 0 1.2 -0.1
v 0 1.3 -0.1
v 0.1 1.2 -0.1
v 0.1 1.3 -0.1
v 1.4 1.2 -0.1
v 1.4 1.3 -0.1
v 1.5 1.2 -0.1
v 1.5 1.3 -0.1
v -0.4 0.1 -0.6
v -0.4 0.2 -0.6
v -0.4 1.3 -0.6
v -0.3 0.2 -0.6
v -0.3 1.1 -0.6
v 0.1 0.2 -0.6
v 0.1 1.1 -0.6
v 0.2 0.2 -0.6
v 0.2 1.1 -0.6
v 1.8 0.2 -0.6
v 1.8 1.1 -0.6
v 1.9 0.1 -0.6
v 1.9 0.2 -0.6
v 1.9 1.3 -0.6
v 0.6 0.1 2.7
v 0.6 0.6 2.7
v 0.9 0.1 2.7
v 0.9 0.6 2.7
v -0.4 0.1 1.9
v -0.4 0.2 1.9
v -0.4 1.3 1.9
v 0.6 0.1 1.9
v 0.6 0.6 1.9
v 0.9 0.1 1.9
v 0.9 0.6 1.9
v 1.9 0.1 1.9
v 1.9 0.2 1.9
v 1.9 1.3 1.9
v 0 1.2 1.4
v 0 1.3 1.4
v 0.1 1.2 1.4
v 0.1 1.3 1.4
v 1.4 1.2 1.4
v 1.4 1.3 1.4
v 1.5 1.2 1.4
v 1.5 1.3 1.4
v 0 1.2 -0.2
v 0 1.3 -0.2
v 0.1 1.2 -0.2
v 0.1 1.3 -0.2
v 1.4 1.2 -0.2
v 1.4 1.3 -0.2
v 1.5 1.2 -0.2
v 1.5 1.3 -0.2
v -0.5 0 -0.7
v -0.5 0.1 -0.7
v -0.5 0.2 -0.7
v -0.5 1.4 -0.7
v -0.4 0.1 -0.7
v -0.4 0.2 -0.7
v -0.3 0.2 -0.7
v -0.3 1.1 -0.7
v 0.1 0.2 -0.7
v 0.1 1.1 -0.7
v 0.2 0.2 -0.7
v 0.2 1.1 -0.7
v 1.8 0.2 -0.7
v 1.8 1.1 -0.7
v 1.9 0.1 -0.7
v 1.9 0.2 -0.7
v 2 0 -0.7
v 2 0.1 -0.7
v 2 0.2 -0.7
v 2 1.4 -0.7
v 0.5 0 2.8
v 0.9 0 2.8
v 0.9 0 2.7
v 1 0 2.7
v -0.5 0 2
v 0.5 0 2
v 1 0 2
v 2 0 2
v -0.5 0 -0.7
v 2 0 -0.7
v 0.6 0.6 2.7
v 0.9 0.6 2.7
v 0.6 0.6 2
v 0.9 0.6 2
v 0.6 0.6 1.9
v 0.9 0.6 1.9
v 0 1.2 1.5
v 0.1 1.2 1.5
v 1.4 1.2 1.5
v 1.5 1.2 1.5
v 0 1.2 1.4
v 0.1 1.2 1.4
v 1.4 1.2 1.4
v 1.5 1.2 1.4
v 0 1.2 -0.1
v 0.1 1.2 -0.1
v 1.4 1.2 -0.1
v 1.5 1.2 -0.1
v 0 1.2 -0.2
v 0.1 1.2 -0.2
v 1.4 1.2 -0.2
v 1.5 1.2 -0.2
v -0.4 1.3 1.9
v 1.9 1.3 1.9
v 0 1.3 1.5
v 0.1 1.3 1.5
v 1.4 1.3 1.5
v 1.5 1.3 1.5
v 0 1.3 1.4
v 0.1 1.3 1.4
v 1.4 1.3 1.4
v 1.5 1.3 1.4
v 0 1.3 -0.1
v 0.1 1.3 -0.1
v 1.4 1.3 -0.1
v 1.5 1.3 -0.1
v 0 1.3 -0.2
v 0.1 1.3 -0.2
v 1.4 1.3 -0.2
v 1.5 1.3 -0.2
v -0.4 1.3 -0.6
v 1.9 1.3 -0.6
v 0.6 0.1 2.7
v 0.9 0.1 2.7
v 0.6 0.1 2
v 0.9 0.1 2
v -0.4 0.1 1.9
v 0.6 0.1 1.9
v 0.9 0.1 1.9
v 1.9 0.1 1.9
v -0.4 0.1 -0.6
v 1.9 0.1 -0.6
v 0.5 0.6 2.8
v 0.9 0.6 2.8
v 0.6 0.6 2.7
v 0.9 0.6 2.7
v 0.5 0.6 2
v 0.6 0.6 2
v 0.6 0.7 2.7
v 1 0.7 2.7
v 0.6 0.7 2
v 1 0.7 2
v -0.5 1.4 2
v 2 1.4 2
v -0.4 1.4 1.9
v 1.9 1.4 1.9
v -0.4 1.4 -0.6
v 1.9 1.4 -0.6
v -0.5 1.4 -0.7
v 2 1.4 -0.7

# faces
f 3/2/1 2/2/1 1/2/1
f 4/2/1 2/2/1 3/2/1
f 5/3/1 4/3/1 3/3/1
f 6/3/1 4/3/1 5/3/1
f 7/2/1 6/2/1 5/2/1
f 8/2/1 6/2/1 7/2/1
f 9/2/1 7/2/1 5/2/1
f 9/5/1 8/5/1 7/5/1
f 10/2/1 6/2/1 8/2/1
f 10/5/1 8/5/1 9/5/1
f 11/2/1 9/2/1 5/2/1
f 11/2/1 10/2/1 9/2/1
f 12/2/1 6/2/1 10/2/1
f 12/2/1 10/2/1 11/2/1
f 17/1/1 14/1/1 13/1/1
f 18/1/1 14/1/1 17/1/1
f 19/1/1 16/1/1 15/1/1
f 20/1/1 16/1/1 19/1/1
f 23/6/1 22/6/1 21/6/1
f 24/6/1 22/6/1 23/6/1
f 27/6/1 26/6/1 25/6/1
f 28/6/1 26/6/1 27/6/1
f 32/6/1 30/6/1 29/6/1
f 33/2/1 31/2/1 30/2/1
f 33/6/1 30/6/1 32/6/1
f 34/2/1 31/2/1 33/2/1
f 39/1/1 36/1/1 35/1/1
f 40/1/1 36/1/1 39/1/1
f 41/1/1 38/1/1 37/1/1
f 42/1/1 38/1/1 41/1/1
f 45/3/1 44/3/1 43/3/1
f 46/3/1 44/3/1 45/3/1
f 47/2/1 46/2/1 45/2/1
f 48/2/1 46/2/1 47/2/1
f 49/3/2 50/3/2 51/3/2
f 51/3/2 50/3/2 52/3/2
f 51/2/2 52/2/2 53/2/2
f 53/2/2 52/2/2 54/2/2
f 51/2/2 53/2/2 55/2/2
f 53/5/2 54/5/2 55/5/2
f 54/2/2 52/2/2 56/2/2
f 55/5/2 54/5/2 56/5/2
f 51/2/2 55/2/2 57/2/2
f 55/2/2 56/2/2 57/2/2
f 56/2/2 52/2/2 58/2/2
f 57/2/2 56/2/2 58/2/2
f 59/1/2 60/1/2 63/1/2
f 63/1/2 60/1/2 64/1/2
f 61/1/2 62/1/2 65/1/2
f 65/1/2 62/1/2 66/1/2
f 67/6/2 68/6/2 70/6/2
f 68/2/2 69/2/2 71/2/2
f 70/6/2 68/6/2 71/6/2
f 71/2/2 69/2/2 72/2/2
f 73/6/2 74/6/2 75/6/2
f 75/6/2 74/6/2 76/6/2
f 77/6/2 78/6/2 79/6/2
f 79/6/2 78/6/2 80/6/2
f 81/1/2 82/1/2 85/1/2
f 85/1/2 82/1/2 86/1/2
f 83/1/2 84/1/2 87/1/2
f 87/1/2 84/1/2 88/1/2
f 89/2/2 90/2/2 91/2/2
f 91/2/2 90/2/2 92/2/2
f 91/3/2 92/3/2 93/3/2
f 93/3/2 92/3/2 94/3/2
f 93/2/2 94/2/2 95/2/2
f 95/2/2 94/2/2 96/2/2
f 99/6/3 98/6/3 97/6/3
f 100/6/3 98/6/3 99/6/3
f 104/6/3 102/6/3 101/6/3
f 105/6/3 104/6/3 103/6/3
f 106/6/3 102/6/3 104/6/3
f 106/6/3 104/6/3 105/6/3
f 111/2/3 108/2/3 107/2/3
f 111/3/3 109/3/3 108/3/3
f 112/2/3 110/2/3 109/2/3
f 112/3/3 109/3/3 111/3/3
f 113/2/3 111/2/3 107/2/3
f 113/2/3 112/2/3 111/2/3
f 114/2/3 110/2/3 112/2/3
f 114/2/3 112/2/3 113/2/3
f 115/2/3 110/2/3 114/2/3
f 116/2/3 110/2/3 115/2/3
f 118/2/3 110/2/3 116/2/3
f 119/2/3 118/2/3 117/2/3
f 120/2/3 118/2/3 119/2/3
f 121/2/3 119/2/3 117/2/3
f 122/3/3 120/3/3 119/3/3
f 122/2/3 119/2/3 121/2/3
f 123/2/3 118/2/3 120/2/3
f 123/3/3 120/3/3 122/3/3
f 124/2/3 110/2/3 118/2/3
f 124/2/3 118/2/3 123/2/3
f 127/1/3 126/1/3 125/1/3
f 128/1/3 126/1/3 127/1/3
f 131/1/3 130/1/3 129/1/3
f 132/1/3 130/1/3 131/1/3
f 135/1/3 134/1/3 133/1/3
f 136/1/3 134/1/3 135/1/3
f 139/1/3 138/1/3 137/1/3
f 140/1/3 138/1/3 139/1/3
f 144/2/3 142/2/3 141/2/3
f 144/2/3 143/2/3 142/2/3
f 145/2/3 143/2/3 144/2/3
f 146/2/3 144/2/3 141/2/3
f 146/5/3 145/5/3 144/5/3
f 147/2/3 143/2/3 145/2/3
f 147/5/3 145/5/3 146/5/3
f 148/2/3 146/2/3 141/2/3
f 148/2/3 147/2/3 146/2/3
f 149/2/3 143/2/3 147/2/3
f 149/2/3 147/2/3 148/2/3
f 150/2/3 148/2/3 141/2/3
f 150/6/3 149/6/3 148/6/3
f 151/2/3 143/2/3 149/2/3
f 151/6/3 149/6/3 150/6/3
f 152/2/3 150/2/3 141/2/3
f 152/2/3 151/2/3 150/2/3
f 153/2/3 151/2/3 152/2/3
f 154/2/3 143/2/3 151/2/3
f 154/2/3 151/2/3 153/2/3
f 155/6/4 156/6/4 157/6/4
f 157/6/4 156/6/4 158/6/4
f 159/2/4 160/2/4 162/2/4
f 160/2/4 161/2/4 162/2/4
f 162/2/4 161/2/4 163/2/4
f 163/2/4 161/2/4 165/2/4
f 164/2/4 165/2/4 166/2/4
f 166/2/4 165/2/4 167/2/4
f 165/2/4 161/2/4 168/2/4
f 167/2/4 165/2/4 168/2/4
f 169/1/4 170/1/4 171/1/4
f 171/1/4 170/1/4 172/1/4
f 173/1/4 174/1/4 175/1/4
f 175/1/4 174/1/4 176/1/4
f 177/1/4 178/1/4 179/1/4
f 179/1/4 178/1/4 180/1/4
f 181/1/4 182/1/4 183/1/4
f 183/1/4 182/1/4 184/1/4
f 185/2/4 186/2/4 189/2/4
f 186/3/4 187/3/4 189/3/4
f 187/2/4 188/2/4 190/2/4
f 189/3/4 187/3/4 190/3/4
f 189/2/4 190/2/4 191/2/4
f 190/2/4 188/2/4 191/2/4
f 191/2/4 188/2/4 192/2/4
f 189/2/4 191/2/4 193/2/4
f 191/5/4 192/5/4 193/5/4
f 192/2/4 188/2/4 194/2/4
f 193/5/4 192/5/4 194/5/4
f 189/2/4 193/2/4 195/2/4
f 193/2/4 194/2/4 195/2/4
f 194/2/4 188/2/4 196/2/4
f 195/2/4 194/2/4 196/2/4
f 189/2/4 195/2/4 197/2/4
f 195/6/4 196/6/4 197/6/4
f 196/2/4 188/2/4 198/2/4
f 197/6/4 196/6/4 198/6/4
f 185/2/4 189/2/4 199/2/4
f 189/2/4 197/2/4 199/2/4
f 197/2/4 198/2/4 199/2/4
f 199/2/4 198/2/4 200/2/4
f 185/2/4 199/2/4 201/2/4
f 199/3/4 200/3/4 202/3/4
f 201/2/4 199/2/4 202/2/4
f 200/2/4 198/2/4 203/2/4
f 202/3/4 200/3/4 203/3/4
f 198/2/4 188/2/4 204/2/4
f 203/2/4 198/2/4 204/2/4
f 207/6/5 206/6/5 205/6/5
f 210/6/5 207/6/5 205/6/5
f 210/6/5 208/6/5 207/6/5
f 211/6/5 208/6/5 210/6/5
f 213/2/5 210/2/5 209/2/5
f 213/2/5 212/2/5 211/2/5
f 213/2/5 211/2/5 210/2/5
f 214/2/5 212/2/5 213/2/5
f 217/6/5 216/6/5 215/6/5
f 218/6/5 216/6/5 217/6/5
f 219/2/5 218/2/5 217/2/5
f 220/2/5 218/2/5 219/2/5
f 225/1/5 222/1/5 221/1/5
f 226/1/5 222/1/5 225/1/5
f 227/1/5 224/1/5 223/1/5
f 228/1/5 224/1/5 227/1/5
f 233/1/5 230/1/5 229/1/5
f 234/1/5 230/1/5 233/1/5
f 235/1/5 232/1/5 231/1/5
f 236/1/5 232/1/5 235/1/5
f 239/4/5 238/4/5 237/4/5
f 240/4/5 238/4/5 239/4/5
f 241/4/5 238/4/5 240/4/5
f 242/4/5 238/4/5 241/4/5
f 243/4/5 239/4/5 237/4/5
f 244/4/5 241/4/5 240/4/5
f 245/4/5 241/4/5 244/4/5
f 246/4/5 238/4/5 242/4/5
f 247/4/5 245/4/5 244/4/5
f 247/4/5 246/4/5 245/4/5
f 247/4/5 243/4/5 237/4/5
f 247/4/5 244/4/5 243/4/5
f 248/4/5 246/4/5 247/4/5
f 249/4/5 246/4/5 248/4/5
f 250/4/5 238/4/5 246/4/5
f 250/4/5 246/4/5 249/4/5
f 251/4/5 247/4/5 237/4/5
f 252/4/5 249/4/5 248/4/5
f 253/4/5 249/4/5 252/4/5
f 254/4/5 238/4/5 250/4/5
f 255/4/5 251/4/5 237/4/5
f 255/4/5 254/4/5 253/4/5
f 255/4/5 253/4/5 252/4/5
f 255/4/5 252/4/5 251/4/5
f 256/4/5 238/4/5 254/4/5
f 256/4/5 254/4/5 255/4/5
f 257/6/6 258/6/6 259/6/6
f 259/6/6 258/6/6 260/6/6
f 259/2/6 260/2/6 262/2/6
f 262/2/6 260/2/6 263/2/6
f 262/2/6 263/2/6 265/2/6
f 263/2/6 264/2/6 265/2/6
f 261/2/6 262/2/6 265/2/6
f 265/2/6 264/2/6 266/2/6
f 267/6/6 268/6/6 269/6/6
f 269/6/6 268/6/6 270/6/6
f 267/6/6 269/6/6 271/6/6
f 271/6/6 269/6/6 272/6/6
f 273/6/6 274/6/6 275/6/6
f 275/6/6 274/6/6 276/6/6
f 277/2/6 278/2/6 279/2/6
f 279/2/6 278/2/6 280/2/6
f 277/2/6 279/2/6 281/2/6
f 279/4/6 280/4/6 281/4/6
f 280/2/6 278/2/6 282/2/6
f 281/4/6 280/4/6 282/4/6
f 277/2/6 281/2/6 283/2/6
f 281/2/6 282/2/6 283/2/6
f 282/2/6 278/2/6 284/2/6
f 283/2/6 282/2/6 284/2/6
